<svg width="16" height="18" viewBox="0 0 16 18" fill="none" xmlns="http://www.w3.org/2000/svg">
<path d="M13.0021 5.80085C13.0021 4.52759 12.4963 3.30647 11.596 2.40614C10.6957 1.5058 9.47454 1 8.20128 1C6.92801 1 5.7069 1.5058 4.80656 2.40614C3.90623 3.30647 3.40043 4.52759 3.40043 5.80085C3.40043 11.4018 1 13.0021 1 13.0021H15.4026C15.4026 13.0021 13.0021 11.4018 13.0021 5.80085Z" stroke="#090F47" stroke-width="1.2" stroke-linecap="round" stroke-linejoin="round"/>
<path d="M9.58554 16.2027C9.44486 16.4452 9.24295 16.6465 9.00001 16.7864C8.75708 16.9264 8.48165 17 8.20129 17C7.92094 17 7.64551 16.9264 7.40257 16.7864C7.15963 16.6465 6.95772 16.4452 6.81705 16.2027" stroke="#090F47" stroke-width="1.2" stroke-linecap="round" stroke-linejoin="round"/>
</svg>
