<svg width="18" height="18" viewBox="0 0 18 18" fill="none" xmlns="http://www.w3.org/2000/svg">
<path d="M5.70935 11.6667V17.0001H14.776V12.7334" stroke="#091C3F" stroke-width="1.2" stroke-linecap="round" stroke-linejoin="round"/>
<path fill-rule="evenodd" clip-rule="evenodd" d="M12.6427 10.5999C12.6427 9.42175 13.5979 8.46655 14.776 8.46655C15.9542 8.46655 16.9094 9.42175 16.9094 10.5999C16.9094 11.778 15.9542 12.7332 14.776 12.7332C13.5979 12.7332 12.6427 11.778 12.6427 10.5999V10.5999Z" stroke="#00A59B" stroke-width="1.2" stroke-linecap="round" stroke-linejoin="round"/>
<path d="M8.37574 1.53345H10.4184C10.7459 1.53345 10.996 1.82625 10.9448 2.14998L9.5848 10.7665C9.50267 11.2849 9.05574 11.6668 8.53094 11.6668H3.42054C2.89574 11.6668 2.4488 11.2849 2.36667 10.7665L1.00667 2.14998C0.955469 1.82625 1.2056 1.53345 1.53307 1.53345H3.57574" stroke="#091C3F" stroke-width="1.2" stroke-linecap="round" stroke-linejoin="round"/>
<path d="M3.57605 1V2.6" stroke="#00A59B" stroke-width="1.2" stroke-linecap="round" stroke-linejoin="round"/>
<path d="M8.37604 1V2.6" stroke="#00A59B" stroke-width="1.2" stroke-linecap="round" stroke-linejoin="round"/>
</svg>
